<?xml version="1.0" encoding="UTF-8"?>
<svg xmlns="http://www.w3.org/2000/svg" xmlns:xlink="http://www.w3.org/1999/xlink" width="17px" height="17px" viewBox="0 0 17 17" version="1.1">
<g id="surface1">
<path style=" stroke:none;fill-rule:nonzero;fill:rgb(65.490198%,66.666669%,67.843139%);fill-opacity:1;" d="M 3.453125 6.207031 C 2.347656 6.34375 1.417969 5.414062 1.558594 4.308594 C 1.652344 3.554688 2.261719 2.945312 3.015625 2.847656 C 4.121094 2.707031 5.050781 3.640625 4.914062 4.746094 C 4.816406 5.503906 4.207031 6.109375 3.453125 6.207031 M 5.980469 8.886719 L 6.082031 7.945312 L 6.167969 7.160156 L 6.207031 6.808594 C 6.230469 6.5625 6.257812 6.320312 6.28125 6.101562 C 6.378906 5.203125 6.449219 4.550781 6.449219 4.53125 C 6.449219 2.6875 4.898438 1.203125 3.027344 1.320312 C 1.410156 1.421875 0.0976562 2.753906 0.0273438 4.378906 C -0.0117188 5.203125 0.261719 5.957031 0.734375 6.546875 C 0.734375 6.546875 3.292969 10.484375 5.511719 13.179688 L 5.828125 10.277344 L 5.980469 8.882812 Z M 16.128906 1.464844 C 16.125 1.464844 9.785156 2.144531 9.785156 2.144531 C 9.644531 2.144531 9.53125 2.257812 9.53125 2.394531 C 9.53125 2.535156 9.644531 2.652344 9.785156 2.652344 C 9.785156 2.652344 12.222656 2.769531 12.339844 2.769531 C 12.984375 2.769531 13.503906 3.289062 13.503906 3.929688 C 13.503906 4.570312 13.46875 4.242188 13.410156 4.382812 C 13.410156 4.386719 13.410156 4.390625 13.40625 4.390625 C 13.1875 4.96875 9.996094 8.941406 9.996094 8.941406 C 9.539062 9.484375 9.109375 9.996094 8.835938 10.359375 C 8.597656 10.675781 7.625 11.773438 7.253906 12.0625 C 7.089844 12.210938 6.875 12.296875 6.636719 12.296875 C 6.394531 12.296875 6.183594 12.210938 6.019531 12.066406 C 5.941406 11.996094 5.816406 12.039062 5.804688 12.148438 L 5.6875 13.21875 C 5.675781 13.320312 5.707031 13.425781 5.777344 13.503906 C 6.699219 14.597656 7.539062 15.429688 8.078125 15.609375 C 8.324219 15.691406 8.582031 15.683594 8.582031 15.683594 C 8.695312 15.683594 8.882812 15.675781 9.097656 15.605469 C 9.5 15.472656 9.753906 15.214844 9.859375 15.105469 C 11.257812 13.632812 16.574219 3.25 16.878906 2.699219 C 16.898438 2.667969 16.972656 2.511719 16.972656 2.308594 C 16.972656 1.84375 16.59375 1.464844 16.125 1.464844 "/>
</g>
</svg>
